<?xml version="1.0" encoding="UTF-8"?>
<svg id="_Слой_1" data-name="Слой_1" xmlns="http://www.w3.org/2000/svg" version="1.1" xmlns:xlink="http://www.w3.org/1999/xlink" viewBox="0 0 729 877.8">
  <!-- Generator: Adobe Illustrator 29.3.1, SVG Export Plug-In . SVG Version: 2.1.0 Build 151)  -->
  <defs>
    <style>
      .st0 {
        fill: none;
        stroke: #000;
        stroke-linecap: round;
        stroke-linejoin: round;
      }
    </style>
  </defs>
  <image width="2916" height="3511" transform="scale(.2)" xlink:href="микро.png"/>
  <path class="st0" d="M100,682c-33-56.7-26.2-103.3,13.8-109.9,31.4,6.2,50.2-1,65.4-12.3l100.4-63.7c11.1-6.2,15.4-14.1,17-22.8,6.8-6.6,14.4-8.2,23.5-2,10.8,3.7,76.6-48.6,81.4-42.9,8.8,6.9-162.3,104.1-259.4,164.1-40-8.8-59.3-30.5-54.8-67.1,42.8-46.7,327.1-291.5,340.1-293.4,36.3.2,43.9,74.2,43.9,74.2,10.3,51.7,53,77.5,82,54.5,3.8-12-19.6-25.5-62.6-25.9-31.5-.5-55.7-7.4-52.1-25.5,7.2-5.9,16.2-7.6,27.6-3.4,9.5,3.7,29.4,9.3,33.4-1,6.9-17.4-40.9-25.9-40.9-25.9-36.8-9.1-57.7-37.1-47-60.3,11.2-22.5,49.1-23.9,62.6,22.5,8.4,46.6,39,70.9,81.7,70.8,42.7,4.1,76.6-11,76.9-28.9-6.4-16.9-36.6-13.8-67.4-9.5-37.7-.3-77.5-6.6-72.2-32,5-13.5,38.4-6.5,64.3-5.4,39.3,3.6,70.6,1.2,73.2-17.4-2.6-33.5-37.1-41-83.1-39.1-30.7-1.5-65.1,5-73.5,17.7-10.7,21.5,23.7,100.3,40.2,92.9,12.5-2.7,10.5-23.5-12.9-71.1-13.1-36-13.2-58.2,2.4-64,27.6-5.7,36.6,23.6,37.1,68.8,1,49.6,12.3,100.9,33.4,100.8,19.4-3.5,13.1-38.6-3.7-80.7-19.3-47.1-22.9-78-5.4-86.8,29-4.3,48.6,48.8,51.4,86.1,2.3,43.7-22.4,87.7-5.4,89.1,44-14.5,54.8-115.8,8.8-164.3-59.6-63-153.5-58.6-170.2,10.9-22.6,122.4,130.6,168.7,130.7,175-23.3,35.1-86.5,17.4-118.1-9.2-38-26.4-37.6-85.3-53.4-92.6-16.9,2-9.3,41.2,8.9,71.1,13.1,24.3,38.5,43.7,68.1,55.5-28.6,17.4-49.2,43.4-73.9,41.9-43.7-3.4-66.4-46.1-77.6-105.5"/>
</svg>